<?xml version="1.0"?>
<svg xmlns="http://www.w3.org/2000/svg" xmlns:xlink="http://www.w3.org/1999/xlink" xmlns:svgjs="http://svgjs.com/svgjs" version="1.1" width="512" height="512" x="0" y="0" viewBox="0 0 512 512" style="enable-background:new 0 0 512 512" xml:space="preserve" class=""><g><g xmlns="http://www.w3.org/2000/svg"><path d="m348.502 148.174c19.703-28.415 25.152-65.202 14.576-98.405l-14.292 4.553c9.173 28.799 4.459 60.689-12.61 85.306z" fill="#ffffff" data-original="#000000" style="" class=""/><path d="m356.954 34.517c-2.449-5-5.292-9.845-8.451-14.4l-12.326 8.547c2.73 3.938 5.188 8.127 7.307 12.451z" fill="#ffffff" data-original="#000000" style="" class=""/><path d="m148.92 118.522 14.292-4.553c-9.173-28.798-4.459-60.688 12.61-85.306l-12.326-8.547c-19.703 28.416-25.152 65.203-14.576 98.406z" fill="#ffffff" data-original="#000000" style="" class=""/><path d="m155.045 133.775c2.451 5.003 5.294 9.848 8.451 14.4l12.326-8.548c-2.729-3.934-5.187-8.124-7.307-12.451z" fill="#ffffff" data-original="#000000" style="" class=""/><path d="m75.763 375.804c-4.898 7.378-7.488 15.974-7.488 24.859 0 24.813 20.187 45 45 45s45-20.187 45-45-20.187-45-45-45c-8.883 0-17.479 2.589-24.858 7.487l8.295 12.497c4.913-3.261 10.641-4.984 16.563-4.984 16.542 0 30 13.458 30 30 0 13.953-9.575 25.712-22.5 29.051v-29.051h-15v29.051c-12.925-3.339-22.5-15.097-22.5-29.051 0-5.924 1.723-11.651 4.984-16.562z" fill="#ffffff" data-original="#000000" style="" class=""/><path d="m489.5 319.405v-.95c0-16.542-13.458-30-30-30h-354.501v15h354.501c8.271 0 15 6.729 15 15h-211v15h218.5c8.271 0 15 6.729 15 15v100.5c0 8.271-6.729 15-15 15h-218.5v15h211v.001c0 8.271-6.729 15-15 15h-37.499v15h37.499c16.542 0 30-13.458 30-30v-.95c12.924-3.339 22.5-15.097 22.5-29.05v-100.5c0-13.954-9.576-25.713-22.5-29.051z" fill="#ffffff" data-original="#000000" style="" class=""/><path d="m37.5 478.956 211-.001v-15h-218.5c-8.271 0-15-6.729-15-15v-100.5c0-8.271 6.729-15 15-15h218.5v-15h-211c0-8.271 6.729-15 15-15h37.499v-15h-37.499c-16.542 0-30 13.458-30 30v.95c-12.925 3.339-22.5 15.097-22.5 29.05v100.5c0 13.953 9.575 25.711 22.5 29.05v.95c0 16.542 13.458 30 30 30h354.5v-15h-354.5c-8.271.001-15-6.728-15-14.999z" fill="#ffffff" data-original="#000000" style="" class=""/><path d="m188.274 393.163h45v15h-45z" fill="#ffffff" data-original="#000000" style="" class=""/><path d="m248.274 393.163h45v15h-45z" fill="#ffffff" data-original="#000000" style="" class=""/><path d="m308.274 393.163h45v15h-45z" fill="#ffffff" data-original="#000000" style="" class=""/><path d="m368.274 393.163h45v15h-45z" fill="#ffffff" data-original="#000000" style="" class=""/><path d="m467 348.455h15v15h-15z" fill="#ffffff" data-original="#000000" style="" class=""/><path d="m467 378.455h15v70.5h-15z" fill="#ffffff" data-original="#000000" style="" class=""/><path d="m151.154 11.591-12.327-8.547c-3.112 4.489-5.99 9.208-8.554 14.024l13.241 7.048c2.29-4.302 4.86-8.516 7.64-12.525z" fill="#ffffff" data-original="#000000" style="" class=""/><path d="m381.726 151.223-13.241-7.047c-2.29 4.301-4.86 8.515-7.64 12.524l12.326 8.548c3.113-4.489 5.991-9.208 8.555-14.025z" fill="#ffffff" data-original="#000000" style="" class=""/><path d="m374.486 131.165 13.954 5.501c8.495-21.548 11.633-45.18 9.075-68.342-2.593-23.478-11.011-46.051-24.345-65.28l-12.326 8.547c24.264 34.992 29.364 79.693 13.642 119.574z" fill="#ffffff" data-original="#000000" style="" class=""/><path d="m138.828 165.247 12.326-8.547c-24.264-34.993-29.364-79.694-13.642-119.575l-13.954-5.501c-8.495 21.548-11.633 45.18-9.075 68.342 2.593 23.479 11.011 46.052 24.345 65.281z" fill="#ffffff" data-original="#000000" style="" class=""/><path d="m332.082 116.018-13.845-5.771c-1.805 4.33-4.069 8.471-6.73 12.308l12.327 8.547c3.262-4.705 6.037-9.78 8.248-15.084z" fill="#ffffff" data-original="#000000" style="" class=""/><path d="m322.278 96.68 14.745 2.753c4.041-21.641-.767-44.328-13.189-62.244l-12.326 8.547c10.155 14.646 14.081 33.214 10.77 50.944z" fill="#ffffff" data-original="#000000" style="" class=""/><path d="m200.491 122.554c-10.155-14.646-14.081-33.213-10.771-50.943l-14.745-2.753c-4.041 21.641.767 44.327 13.189 62.243z" fill="#ffffff" data-original="#000000" style="" class=""/><path d="m200.491 45.737-12.326-8.547c-3.262 4.704-6.037 9.779-8.248 15.083l13.845 5.771c1.804-4.33 4.069-8.471 6.729-12.307z" fill="#ffffff" data-original="#000000" style="" class=""/><path d="m233.5 123.123v150.332h15v-159.84l-4.497-1.965c-10.937-4.778-18.003-15.575-18.003-27.504 0-6.912 2.406-13.656 6.776-18.99l-11.604-9.505c-6.56 8.008-10.172 18.128-10.172 28.495-.001 16.198 8.686 31.002 22.5 38.977z" fill="#ffffff" data-original="#000000" style="" class=""/><path d="m263.5 205.095h15v68.36h-15z" fill="#ffffff" data-original="#000000" style="" class=""/><path d="m256 54.145c16.542 0 30 13.458 30 30 0 11.93-7.066 22.726-18.003 27.504l-4.497 1.965v76.48h15v-66.972c13.814-7.975 22.5-22.78 22.5-38.978 0-24.813-20.187-45-45-45-7.295 0-14.545 1.791-20.967 5.178l6.999 13.267c4.333-2.285 9.032-3.444 13.968-3.444z" fill="#ffffff" data-original="#000000" style="" class=""/><path d="m248.5 76.645h15v15h-15z" fill="#ffffff" data-original="#000000" style="" class=""/></g></g></svg>
