<svg id="Layer_1" data-name="Layer 1" xmlns="http://www.w3.org/2000/svg" viewBox="0 0 250 39"><defs><style>.cls-1{fill:#0d4d89;}.cls-2,.cls-5{fill:#424142;}.cls-3{fill:#0c1d3c;}.cls-4{fill:#f58020;}.cls-5{font-size:25.13px;font-family:Gotham-Bold, Gotham;font-weight:700;letter-spacing:-0.04em;}.cls-6{letter-spacing:-0.06em;}.cls-7{letter-spacing:-0.04em;}.cls-8{fill:none;stroke:#f58020;stroke-miterlimit:10;}</style></defs><path class="cls-1" d="M57.78,21.9l2.16.35a13.45,13.45,0,0,0,1.93,4.64l-1.28,1.79a1,1,0,0,0,0,1.21,13.94,13.94,0,0,0,1,1.14c.37.36.74.7,1.13,1a1,1,0,0,0,1.21,0l1.79-1.28a13.32,13.32,0,0,0,4.64,1.92l.35,2.17a1,1,0,0,0,.87.84c.31,0,.62.06.93.07a.56.56,0,0,0,.6-.56v-4.5a.56.56,0,0,0-.55-.56,10.68,10.68,0,0,1,0-21.34.56.56,0,0,0,.55-.56V3.77A.58.58,0,0,0,73,3.36a.56.56,0,0,0-.41-.15c-.32,0-.63,0-.94.06a1,1,0,0,0-.87.85L70.4,6.29a13.15,13.15,0,0,0-4.64,1.93L64,6.93a1,1,0,0,0-1.21,0c-.39.32-.77.66-1.13,1a13.94,13.94,0,0,0-1,1.14,1,1,0,0,0,0,1.21l1.28,1.79a13.53,13.53,0,0,0-1.93,4.64l-2.16.36a1,1,0,0,0-.84.86,14,14,0,0,0,0,3,1,1,0,0,0,.84.89Zm0,0"/><path class="cls-2" d="M69.13,20.8a.35.35,0,0,0-.35.35.35.35,0,0,0,.7,0,.35.35,0,0,0-.35-.35Zm0,0"/><path class="cls-2" d="M76.72,18.41a.35.35,0,0,0,.35-.35.35.35,0,0,0-.7,0,.35.35,0,0,0,.35.35Zm0,0"/><path class="cls-2" d="M76.34,20.49a.35.35,0,0,0-.35.35.36.36,0,0,0,.71,0,.35.35,0,0,0-.36-.35Zm0,0"/><path class="cls-2" d="M71.18,22.84a.35.35,0,0,0-.35.35.34.34,0,0,0,.35.35.35.35,0,0,0,.35-.35.35.35,0,0,0-.35-.35Zm0,0"/><path class="cls-2" d="M75,14.88a.36.36,0,0,0,0,.71.36.36,0,0,0,0-.71Zm0,0"/><path class="cls-2" d="M69.5,18.51a.34.34,0,0,0,.35-.35.35.35,0,0,0-.35-.35.35.35,0,0,0-.35.35.35.35,0,0,0,.35.35Zm0,0"/><path class="cls-2" d="M76.34,22a1.12,1.12,0,0,1-.93-.49,1.05,1.05,0,0,1-.21-.65,1.16,1.16,0,0,1,.54-1,1.15,1.15,0,0,1,1.68.58h2.23a7.3,7.3,0,0,0,.07-.94,6.79,6.79,0,0,0-6.8-6.79,6.2,6.2,0,0,0-1,.07v8.37a.4.4,0,0,1-.4.4H70.2a1.15,1.15,0,0,1-2.22-.4A1.16,1.16,0,0,1,69.13,20a1.14,1.14,0,0,1,.76.29,1.11,1.11,0,0,1,.31.46h1V12.94a6.75,6.75,0,0,0-.76.25v2.44a.4.4,0,0,1-.8,0V13.57c-.17.09-.48.29-.48.29v2.3a.4.4,0,0,1-.8,0V14.49l-.21.21a6.74,6.74,0,0,0-1.76,3.07h2.07a1.14,1.14,0,0,1,2-.22,1.18,1.18,0,0,1,.18.61,1.12,1.12,0,0,1-.51.95,1.08,1.08,0,0,1-.64.2,1.14,1.14,0,0,1-1.07-.75H66.2a5.86,5.86,0,0,0-.07.94,6.79,6.79,0,0,0,6.79,6.79,8.14,8.14,0,0,0,.87-.05V18a.39.39,0,0,1,.4-.39h1.49a1.14,1.14,0,0,1,1-.67,1.15,1.15,0,1,1-1.1,1.46h-1v7.72a8.45,8.45,0,0,0,.85-.28V23.08a.4.4,0,0,1,.4-.4.39.39,0,0,1,.39.4v2.35c.24-.13.49-.29.49-.29V22.55a.4.4,0,1,1,.79,0v2l.22-.21a6.74,6.74,0,0,0,1.76-3.07H77.42a1.14,1.14,0,0,1-1.08.75ZM75,16.38a1.18,1.18,0,0,1-.5-.11l-.07,0-1.13.94v5.11a.4.4,0,0,1-.21.35l-.76.4a.92.92,0,0,1,0,.16,1.15,1.15,0,1,1-1.14-1.14,1.17,1.17,0,0,1,.49.11.9.9,0,0,1,.26.17l.55-.29V17a.41.41,0,0,1,.14-.31l1.28-1.06a1,1,0,0,1-.07-.39A1.15,1.15,0,1,1,75,16.38Zm0,0"/><path class="cls-2" d="M79.49,21.23a6.91,6.91,0,0,0,.16-.79,6.91,6.91,0,0,1-.16.79Zm0,0"/><path class="cls-2" d="M66.2,18.56a5.27,5.27,0,0,1,.16-.79,5.27,5.27,0,0,0-.16.79Zm0,0"/><path class="cls-3" d="M94.15,2.09V9.72h6.4v5h-6.4V26.48c0,3.25.87,4.91,3.44,4.91a9.84,9.84,0,0,0,2.62-.3l.13,5.12a15,15,0,0,1-4.9.7,7.79,7.79,0,0,1-5.78-2.2c-1.45-1.53-2.11-4-2.11-7.46V14.73H83.76v-5h3.79v-6Z"/><path class="cls-3" d="M13.25,7.35h-10V2H29.76V7.35H19.65V37h-6.4Z"/><path class="cls-3" d="M31.61,2h6.08v14.3h.1A8.69,8.69,0,0,1,45,12.45c4.08,0,8.4,2.71,8.4,10.42V37H47.29V23.54c0-3.48-1.26-6.13-4.62-6.13A5,5,0,0,0,38,20.81a5.12,5.12,0,0,0-.27,1.84V37H31.61Z"/><path class="cls-3" d="M103.24,2h6.08v14.3h.1a8.73,8.73,0,0,1,7.18-3.82c4.09,0,8.4,2.71,8.4,10.42V37h-6.08V23.54c0-3.48-1.26-6.13-4.62-6.13a5,5,0,0,0-4.71,3.4,5.12,5.12,0,0,0-.27,1.84V37h-6.08Z"/><path class="cls-4" d="M72.92,28.15a8.65,8.65,0,1,1,8.65-8.65A8.66,8.66,0,0,1,72.92,28.15Zm0-16.81a8.16,8.16,0,1,0,8.17,8.16A8.17,8.17,0,0,0,72.92,11.34Z"/><text class="cls-5" transform="translate(138.02 28.73)">Net<tspan class="cls-6" x="42.67" y="0">w</tspan><tspan class="cls-7" x="62.67" y="0">ork</tspan></text><line class="cls-8" x1="134.42" y1="8.74" x2="134.42" y2="32.14"/></svg>