<svg id="Layer_1" data-name="Layer 1" xmlns="http://www.w3.org/2000/svg" viewBox="0 0 24 24"><defs><style>.cls-1{fill:#0d1e3b;}</style></defs><path class="cls-1" d="M14.44,14.25H9a1.51,1.51,0,0,1-1-.43,1.48,1.48,0,0,1-.45-1.05,1.44,1.44,0,0,1,.45-1,1.48,1.48,0,0,1,.8-.42v0a2,2,0,0,1,2-2,2,2,0,0,1,1.69,1,1.5,1.5,0,0,1,.78-.22,1.48,1.48,0,0,1,1.46,1.25,1.5,1.5,0,0,1,.83.42,1.48,1.48,0,0,1,.44,1,1.51,1.51,0,0,1-.44,1.05,1.55,1.55,0,0,1-1.06.43ZM9,11.78a1,1,0,1,0,0,2h5.43a1,1,0,1,0,0-2H14.2v-.25a1,1,0,0,0-1-1,.94.94,0,0,0-.69.29l-.27.26-.14-.35a1.46,1.46,0,0,0-1.37-.94,1.48,1.48,0,0,0-1.48,1.48,1.23,1.23,0,0,0,0,.19l0,.31Zm0,0"/><path class="cls-1" d="M1,13.7,2.54,14a9.38,9.38,0,0,0,1.37,3.28L3,18.5a.71.71,0,0,0,0,.86c.23.28.47.54.72.8s.53.49.8.72a.71.71,0,0,0,.86,0L6.66,20a9.36,9.36,0,0,0,3.28,1.36l.25,1.53a.71.71,0,0,0,.61.6l.67.05a.41.41,0,0,0,.29-.11.43.43,0,0,0,.13-.29V20a.41.41,0,0,0-.39-.4,7.56,7.56,0,0,1,0-15.1.41.41,0,0,0,.39-.4V.87a.41.41,0,0,0-.13-.29.39.39,0,0,0-.29-.11L10.8.52a.71.71,0,0,0-.61.6L9.94,2.65A9.38,9.38,0,0,0,6.66,4L5.39,3.11a.71.71,0,0,0-.86,0c-.27.22-.54.47-.8.72A9.25,9.25,0,0,0,3,4.65.69.69,0,0,0,3,5.5l.91,1.27a9.35,9.35,0,0,0-1.37,3.29L1,10.31a.68.68,0,0,0-.59.61,9.66,9.66,0,0,0,0,2.15A.72.72,0,0,0,1,13.7Zm0,0"/><path class="cls-1" d="M11.73,18.12A6.12,6.12,0,1,1,17.85,12,6.13,6.13,0,0,1,11.73,18.12Zm0-11.9A5.78,5.78,0,1,0,17.5,12,5.79,5.79,0,0,0,11.73,6.22Z"/></svg>