<svg id="Layer_1" data-name="Layer 1" xmlns="http://www.w3.org/2000/svg" viewBox="0 0 24 24"><defs><style>.cls-1,.cls-2{fill:#0d1e3b;}.cls-2{stroke:#fff;stroke-miterlimit:10;stroke-width:0.15px;}</style></defs><path class="cls-1" d="M1.24,13.07l1.38.23a8.45,8.45,0,0,0,1.24,3L3,17.42a.66.66,0,0,0,0,.78q.31.38.66.72c.24.24.48.45.73.66a.63.63,0,0,0,.77,0l1.15-.82a8.42,8.42,0,0,0,3,1.24l.22,1.38a.64.64,0,0,0,.56.54,5.6,5.6,0,0,0,.6.05.35.35,0,0,0,.26-.1.34.34,0,0,0,.12-.26V18.73a.37.37,0,0,0-.35-.36,6.85,6.85,0,0,1,0-13.68.36.36,0,0,0,.35-.36V1.45A.34.34,0,0,0,11,1.19a.32.32,0,0,0-.26-.1l-.6,0a.66.66,0,0,0-.56.55L9.33,3.06a8.42,8.42,0,0,0-3,1.24L5.2,3.48a.63.63,0,0,0-.77,0,7.53,7.53,0,0,0-.73.65c-.23.23-.45.48-.66.73a.66.66,0,0,0,0,.78L3.86,6.8a8.45,8.45,0,0,0-1.24,3L1.24,10a.65.65,0,0,0-.55.55,9.08,9.08,0,0,0,0,1.95.67.67,0,0,0,.55.57Zm0,0"/><path class="cls-1" d="M10.94,17.08a5.55,5.55,0,1,1,5.55-5.55A5.55,5.55,0,0,1,10.94,17.08Zm0-10.78a5.24,5.24,0,1,0,5.24,5.23A5.24,5.24,0,0,0,10.94,6.3Z"/><path class="cls-2" d="M13.53,8.68H8.64a1,1,0,0,0-1,1v2.79a1,1,0,0,0,1,1.05H10v.7h-.7V15h3.49v-.7h-.7v-.7h1.4a1,1,0,0,0,1.05-1.05V9.72a1,1,0,0,0-1.05-1Zm-2.09,5.58h-.7v-.7h.7Zm2.44-1.75a.35.35,0,0,1-.35.35H8.64a.35.35,0,0,1-.35-.35v-.34h5.59Zm0-1H8.29V9.72a.35.35,0,0,1,.35-.35h4.89a.35.35,0,0,1,.35.35Zm0,0"/></svg>