<svg id="Layer_1" data-name="Layer 1" xmlns="http://www.w3.org/2000/svg" viewBox="0 0 121.31 159.96"><defs><style>.cls-1{fill:#0d4d89;}.cls-2{fill:#424142;}.cls-3{fill:#f58020;}</style></defs><path class="cls-1" d="M4.54,91.74l10.62,1.74a65.49,65.49,0,0,0,9.46,22.8l-6.29,8.77a5,5,0,0,0,.06,6,69.94,69.94,0,0,0,5.05,5.56c1.79,1.8,3.64,3.45,5.54,5.05a5,5,0,0,0,6,.06l8.77-6.29a65.32,65.32,0,0,0,22.78,9.46l1.74,10.63a4.9,4.9,0,0,0,4.24,4.13c1.51.17,3,.28,4.59.36A2.79,2.79,0,0,0,80,157.2V135.1a2.75,2.75,0,0,0-2.68-2.75,52.45,52.45,0,0,1,0-104.75A2.77,2.77,0,0,0,80,24.84V2.76a2.76,2.76,0,0,0-.86-2,2.81,2.81,0,0,0-2-.76c-1.55.07-3.08.18-4.6.33A5,5,0,0,0,68.23,4.5L66.49,15.12a65.53,65.53,0,0,0-22.78,9.47L34.94,18.3a5,5,0,0,0-6,.05c-1.93,1.59-3.78,3.28-5.54,5A63.16,63.16,0,0,0,18.39,29a5,5,0,0,0-.06,6l6.29,8.78a65.45,65.45,0,0,0-9.46,22.79L4.54,68.23A4.9,4.9,0,0,0,.41,72.48a67.39,67.39,0,0,0,0,14.89,5,5,0,0,0,4.13,4.37Zm0,0"/><path class="cls-2" d="M60.24,86.34A1.73,1.73,0,1,0,62,88.07a1.73,1.73,0,0,0-1.73-1.73Zm0,0"/><path class="cls-2" d="M97.5,74.62a1.73,1.73,0,1,0-1.72-1.72,1.72,1.72,0,0,0,1.72,1.72Zm0,0"/><path class="cls-2" d="M95.67,84.82a1.72,1.72,0,1,0,1.72,1.72,1.73,1.73,0,0,0-1.72-1.72Zm0,0"/><path class="cls-2" d="M70.3,96.39A1.72,1.72,0,1,0,72,98.11a1.72,1.72,0,0,0-1.72-1.72Zm0,0"/><path class="cls-2" d="M89,57.32A1.73,1.73,0,1,0,90.67,59,1.72,1.72,0,0,0,89,57.32Zm0,0"/><path class="cls-2" d="M62.08,75.14a1.72,1.72,0,1,0-1.72-1.72,1.72,1.72,0,0,0,1.72,1.72Zm0,0"/><path class="cls-2" d="M95.67,92.17a5.62,5.62,0,0,1-3-10.41,5.53,5.53,0,0,1,3-.85,5.64,5.64,0,0,1,5.27,3.68h11a33.57,33.57,0,0,0,.32-4.61A33.34,33.34,0,0,0,78.87,46.64a33.62,33.62,0,0,0-4.72.34V88.07a2,2,0,0,1-2,2H65.52A5.63,5.63,0,1,1,64,83.88a5.55,5.55,0,0,1,1.52,2.23h4.72V47.77A34.29,34.29,0,0,0,66.53,49V61a2,2,0,0,1-3.91,0V50.86c-.83.46-2.37,1.45-2.37,1.45V63.56a2,2,0,1,1-3.9,0V55.41c-.5.44-.57.52-1.05,1a33.15,33.15,0,0,0-8.67,15H56.8a5.64,5.64,0,1,1,0,3.91H45.85A35.22,35.22,0,0,0,45.54,80a33.34,33.34,0,0,0,33.33,33.34,33.81,33.81,0,0,0,4.28-.28V72.49a2,2,0,0,1,1.95-2h7.3a5.6,5.6,0,1,1-.31,3.91h-5v37.87A33.79,33.79,0,0,0,91.22,111V97.53a2,2,0,0,1,3.9,0V109.1c1.14-.63,2.37-1.46,2.37-1.46V94.93a2,2,0,0,1,3.91,0v9.62c.5-.44.57-.52,1-1a33.24,33.24,0,0,0,8.67-15H100.94a5.63,5.63,0,0,1-5.27,3.67ZM89,64.67a5.44,5.44,0,0,1-2.42-.55l-.38-.19L80.6,68.56v25a2,2,0,0,1-1,1.72l-3.71,2a5.16,5.16,0,0,1,.06.79A5.63,5.63,0,1,1,72.73,93a5.86,5.86,0,0,1,1.28.86l2.68-1.45V67.65a2,2,0,0,1,.7-1.5l6.26-5.22A5.63,5.63,0,1,1,89,64.67Zm0,0"/><path class="cls-2" d="M111.12,88.5a34.2,34.2,0,0,0,.77-3.91,34.2,34.2,0,0,1-.77,3.91Zm0,0"/><path class="cls-2" d="M45.85,75.37a36.54,36.54,0,0,1,.78-3.91,36.54,36.54,0,0,0-.78,3.91Zm0,0"/><path class="cls-3" d="M78.87,122.42A42.44,42.44,0,1,1,121.31,80,42.49,42.49,0,0,1,78.87,122.42Zm0-82.5A40.06,40.06,0,1,0,118.94,80,40.1,40.1,0,0,0,78.87,39.92Z"/></svg>