<svg width="82" height="81" viewBox="0 0 82 81" fill="none" xmlns="http://www.w3.org/2000/svg">
<path d="M75.1667 52.3125C75.1667 61.6326 67.5185 69.1875 58.0833 69.1875C55.0254 69.1875 52.152 68.3944 49.6681 67.0022C47.0375 65.5293 44.8493 63.3938 43.3265 60.8132C41.8038 58.2327 41.001 55.2994 41 52.3125C41 47.979 42.6537 44.0269 45.3699 41.04C46.9704 39.2748 48.9302 37.8633 51.121 36.8978C53.3119 35.9324 55.6844 35.4348 58.0833 35.4375C67.5185 35.4375 75.1667 42.9924 75.1667 52.3125Z" stroke="#F8F8F8" stroke-width="4" stroke-linecap="round" stroke-linejoin="round"/>
<path d="M58.083 20.25V35.4375C55.6841 35.4348 53.3115 35.9324 51.1207 36.8978C48.9299 37.8633 46.9701 39.2748 45.3696 41.04C42.5506 44.1336 40.9935 48.1502 40.9997 52.3125C41.0007 55.2994 41.8035 58.2327 43.3262 60.8132C44.8489 63.3938 47.0371 65.5293 49.6678 67.0022C45.1202 68.3606 39.0829 69.1875 32.458 69.1875C18.3062 69.1875 6.83301 65.4092 6.83301 60.75V20.25" stroke="#F8F8F8" stroke-width="4" stroke-linecap="round" stroke-linejoin="round"/>
<path d="M58.083 52.3125L52.958 57.375M58.083 20.25C58.083 24.9092 46.6098 28.6875 32.458 28.6875C18.3062 28.6875 6.83301 24.9092 6.83301 20.25C6.83301 15.5908 18.3062 11.8125 32.458 11.8125C46.6098 11.8125 58.083 15.5908 58.083 20.25ZM6.83301 47.25C6.83301 51.9092 18.3062 55.6875 32.458 55.6875C35.545 55.6875 38.5055 55.5086 41.2457 55.1779L6.83301 47.25ZM6.83301 33.75C6.83301 38.4092 18.3062 42.1875 32.458 42.1875C37.1662 42.1875 41.5788 41.769 45.3696 41.04L6.83301 33.75ZM63.208 57.375L58.083 52.3125L63.208 57.375ZM58.083 52.3125L63.208 47.25L58.083 52.3125ZM58.083 52.3125L52.958 47.25L58.083 52.3125Z" stroke="#F8F8F8" stroke-width="4" stroke-linecap="round" stroke-linejoin="round"/>
</svg>
