<svg width="66" height="62" viewBox="0 0 66 62" fill="none" xmlns="http://www.w3.org/2000/svg">
<g clip-path="url(#clip0_83_124)">
<path d="M22.7903 11.7219C24.1309 10.4623 25.7226 9.4632 27.4743 8.78154C29.226 8.09987 31.1036 7.74902 32.9996 7.74902C34.8957 7.74902 36.7732 8.09987 38.525 8.78154C40.2767 9.4632 41.8684 10.4623 43.209 11.7219C43.3993 11.9069 43.6269 12.0545 43.8785 12.1561C44.1301 12.2576 44.4008 12.3111 44.6746 12.3133C44.9485 12.3155 45.2201 12.2665 45.4736 12.1691C45.727 12.0717 45.9573 11.9278 46.151 11.7459C46.3446 11.564 46.4978 11.3476 46.6015 11.1095C46.7052 10.8714 46.7574 10.6163 46.755 10.359C46.7526 10.1018 46.6957 9.84754 46.5876 9.61115C46.4795 9.37477 46.3224 9.16098 46.1254 8.98225C44.4017 7.363 42.3554 6.07855 40.1033 5.20222C37.8511 4.32589 35.4373 3.87485 32.9996 3.87485C30.562 3.87485 28.1481 4.32589 25.896 5.20222C23.6439 6.07855 21.5976 7.363 19.8739 8.98225C19.4982 9.34767 19.2903 9.83708 19.295 10.3451C19.2997 10.8531 19.5166 11.339 19.899 11.6983C20.2814 12.0575 20.7987 12.2613 21.3395 12.2657C21.8803 12.2701 22.4013 12.0748 22.7903 11.7219Z" fill="#F8F8F8"/>
<path d="M28.6274 17.205C29.7876 16.1165 31.3602 15.5051 32.9999 15.5051C34.6396 15.5051 36.2122 16.1165 37.3724 17.205C37.7597 17.5688 38.2849 17.7732 38.8326 17.7732C39.3803 17.7732 39.9056 17.5688 40.2929 17.205C40.6802 16.8412 40.8978 16.3478 40.8978 15.8333C40.8978 15.3187 40.6802 14.8253 40.2929 14.4615C39.3353 13.5617 38.1983 12.8479 36.9469 12.3609C35.6956 11.8739 34.3544 11.6232 32.9999 11.6232C31.6454 11.6232 30.3042 11.8739 29.0528 12.3609C27.8015 12.8479 26.6645 13.5617 25.7069 14.4615C25.3312 14.8269 25.1233 15.3163 25.128 15.8243C25.1327 16.3324 25.3496 16.8183 25.732 17.1775C26.1144 17.5368 26.6317 17.7405 27.1725 17.7449C27.7133 17.7494 28.2343 17.5541 28.6233 17.2011L28.6274 17.205Z" fill="#F8F8F8"/>
<path d="M12.2677 9.07524C12.1901 8.82504 12.0594 8.59213 11.8837 8.39046C11.708 8.18879 11.4907 8.0225 11.245 7.90154C10.9992 7.78058 10.73 7.70744 10.4535 7.6865C10.1769 7.66556 9.89873 7.69725 9.63553 7.77966C9.37233 7.86208 9.12953 7.99353 8.92167 8.16616C8.71381 8.33878 8.54517 8.54902 8.42582 8.7843C8.30648 9.01958 8.23889 9.27506 8.22711 9.53545C8.21533 9.79584 8.25959 10.0558 8.35725 10.2997L15.6997 31H6.1875C4.54647 31 2.97266 31.6124 1.81228 32.7024C0.651895 33.7925 0 35.2709 0 36.8125L0 44.5625C0 46.1041 0.651895 47.5825 1.81228 48.6725C2.97266 49.7626 4.54647 50.375 6.1875 50.375H8.25C8.25 50.8888 8.4673 51.3817 8.85409 51.745C9.24089 52.1084 9.76549 52.3125 10.3125 52.3125H18.5625C19.1095 52.3125 19.6341 52.1084 20.0209 51.745C20.4077 51.3817 20.625 50.8888 20.625 50.375H45.375C45.375 50.8888 45.5923 51.3817 45.9791 51.745C46.3659 52.1084 46.8905 52.3125 47.4375 52.3125H55.6875C56.2345 52.3125 56.7591 52.1084 57.1459 51.745C57.5327 51.3817 57.75 50.8888 57.75 50.375H59.8125C61.4535 50.375 63.0273 49.7626 64.1877 48.6725C65.3481 47.5825 66 46.1041 66 44.5625V36.8125C66 35.2709 65.3481 33.7925 64.1877 32.7024C63.0273 31.6124 61.4535 31 59.8125 31H50.3003L57.6427 10.2997C57.7404 10.0558 57.7847 9.79584 57.7729 9.53545C57.7611 9.27506 57.6935 9.01958 57.5742 8.7843C57.4548 8.54902 57.2862 8.33878 57.0783 8.16616C56.8705 7.99353 56.6277 7.86208 56.3645 7.77966C56.1013 7.69725 55.8231 7.66556 55.5465 7.6865C55.27 7.70744 55.0008 7.78058 54.755 7.90154C54.5093 8.0225 54.292 8.18879 54.1163 8.39046C53.9406 8.59213 53.8099 8.82504 53.7323 9.07524L45.9525 31H20.0475L12.2677 9.07524ZM10.3125 42.625C9.76549 42.625 9.24089 42.4209 8.85409 42.0575C8.4673 41.6942 8.25 41.2013 8.25 40.6875C8.25 40.1736 8.4673 39.6808 8.85409 39.3175C9.24089 38.9541 9.76549 38.75 10.3125 38.75C10.8595 38.75 11.3841 38.9541 11.7709 39.3175C12.1577 39.6808 12.375 40.1736 12.375 40.6875C12.375 41.2013 12.1577 41.6942 11.7709 42.0575C11.3841 42.4209 10.8595 42.625 10.3125 42.625ZM28.875 40.6875C28.875 40.1736 29.0923 39.6808 29.4791 39.3175C29.8659 38.9541 30.3905 38.75 30.9375 38.75C31.4845 38.75 32.0091 38.9541 32.3959 39.3175C32.7827 39.6808 33 40.1736 33 40.6875C33 41.2013 32.7827 41.6942 32.3959 42.0575C32.0091 42.4209 31.4845 42.625 30.9375 42.625C30.3905 42.625 29.8659 42.4209 29.4791 42.0575C29.0923 41.6942 28.875 41.2013 28.875 40.6875ZM39.1875 42.625C38.6405 42.625 38.1159 42.4209 37.7291 42.0575C37.3423 41.6942 37.125 41.2013 37.125 40.6875C37.125 40.1736 37.3423 39.6808 37.7291 39.3175C38.1159 38.9541 38.6405 38.75 39.1875 38.75C39.7345 38.75 40.2591 38.9541 40.6459 39.3175C41.0327 39.6808 41.25 40.1736 41.25 40.6875C41.25 41.2013 41.0327 41.6942 40.6459 42.0575C40.2591 42.4209 39.7345 42.625 39.1875 42.625ZM45.375 40.6875C45.375 40.1736 45.5923 39.6808 45.9791 39.3175C46.3659 38.9541 46.8905 38.75 47.4375 38.75C47.9845 38.75 48.5091 38.9541 48.8959 39.3175C49.2827 39.6808 49.5 40.1736 49.5 40.6875C49.5 41.2013 49.2827 41.6942 48.8959 42.0575C48.5091 42.4209 47.9845 42.625 47.4375 42.625C46.8905 42.625 46.3659 42.4209 45.9791 42.0575C45.5923 41.6942 45.375 41.2013 45.375 40.6875ZM53.625 40.6875C53.625 40.1736 53.8423 39.6808 54.2291 39.3175C54.6159 38.9541 55.1405 38.75 55.6875 38.75C56.2345 38.75 56.7591 38.9541 57.1459 39.3175C57.5327 39.6808 57.75 40.1736 57.75 40.6875C57.75 41.2013 57.5327 41.6942 57.1459 42.0575C56.7591 42.4209 56.2345 42.625 55.6875 42.625C55.1405 42.625 54.6159 42.4209 54.2291 42.0575C53.8423 41.6942 53.625 41.2013 53.625 40.6875Z" fill="#F8F8F8"/>
<path d="M35.0625 21.3125C35.0625 21.8264 34.8452 22.3192 34.4584 22.6825C34.0716 23.0459 33.547 23.25 33 23.25C32.453 23.25 31.9284 23.0459 31.5416 22.6825C31.1548 22.3192 30.9375 21.8264 30.9375 21.3125C30.9375 20.7986 31.1548 20.3058 31.5416 19.9425C31.9284 19.5791 32.453 19.375 33 19.375C33.547 19.375 34.0716 19.5791 34.4584 19.9425C34.8452 20.3058 35.0625 20.7986 35.0625 21.3125Z" fill="#F8F8F8"/>
</g>
<defs>
<clipPath id="clip0_83_124">
<rect width="66" height="62" fill="white"/>
</clipPath>
</defs>
</svg>
