<svg width="56" height="57" viewBox="0 0 56 57" fill="none" xmlns="http://www.w3.org/2000/svg">
<path d="M19.183 9.33334L14.0164 4.00001H41.9164L52.2497 14.6667V43.4667L29.5164 20H36.7497V9.33334H19.183ZM55.1172 53.2267L51.8364 56.6133L47.3414 52H10.9164C9.54607 52 8.23191 51.4381 7.26297 50.4379C6.29403 49.4377 5.74969 48.0812 5.74969 46.6667V9.06668L0.867188 4.00001L4.17385 0.613342L55.1172 53.2267ZM16.3672 20L10.9164 14.3733V20H16.3672ZM36.4655 40.7467L26.9847 30.96C23.7039 31.8933 21.2497 34.96 21.2497 38.6667C21.2497 43.0933 24.7114 46.6667 28.9997 46.6667C32.5905 46.6667 35.5614 44.1334 36.4655 40.7467Z" fill="#F8F8F8"/>
</svg>
