<svg width="50" height="55" viewBox="0 0 50 55" fill="none" xmlns="http://www.w3.org/2000/svg">
<path d="M25.7799 1.21021C26.319 0.702481 27.0502 0.417252 27.8125 0.417252C28.5748 0.417252 29.306 0.702481 29.8451 1.21021L38.4701 9.33522C39.0091 9.84311 39.3119 10.5319 39.3119 11.25C39.3119 11.9682 39.0091 12.6569 38.4701 13.1648L29.8451 21.2898C29.3029 21.7831 28.5767 22.0561 27.8228 22.05C27.069 22.0438 26.3479 21.759 25.8149 21.2568C25.2818 20.7547 24.9795 20.0754 24.9729 19.3653C24.9664 18.6551 25.2562 17.971 25.7799 17.4602L29.4973 13.9583H24.9375C14.737 13.9583 6.25 21.9533 6.25 31.5625C6.25 41.1717 14.737 49.1667 24.9375 49.1667C35.138 49.1667 43.625 41.1717 43.625 31.5625C43.625 30.8442 43.9279 30.1553 44.4671 29.6474C45.0062 29.1395 45.7375 28.8542 46.5 28.8542C47.2625 28.8542 47.9938 29.1395 48.5329 29.6474C49.0721 30.1553 49.375 30.8442 49.375 31.5625C49.375 44.1617 38.312 54.5834 24.9375 54.5834C11.563 54.5834 0.5 44.1617 0.5 31.5625C0.5 18.9633 11.563 8.54167 24.9375 8.54167H29.4973L25.7799 5.0398C25.2409 4.53191 24.9381 3.84316 24.9381 3.12501C24.9381 2.40685 25.2409 1.7181 25.7799 1.21021Z" fill="#0FA958"/>
</svg>
