<?xml version="1.0" encoding="UTF-8" standalone="no"?>
<svg
   width="50"
   height="55"
   viewBox="0 0 50 55"
   fill="none"
   version="1.1"
   id="svg19"
   sodipodi:docname="refresh-w.svg"
   inkscape:version="1.1.2 (b8e25be833, 2022-02-05)"
   xmlns:inkscape="http://www.inkscape.org/namespaces/inkscape"
   xmlns:sodipodi="http://sodipodi.sourceforge.net/DTD/sodipodi-0.dtd"
   xmlns="http://www.w3.org/2000/svg"
   xmlns:svg="http://www.w3.org/2000/svg">
  <defs
     id="defs23" />
  <sodipodi:namedview
     id="namedview21"
     pagecolor="#ffffff"
     bordercolor="#666666"
     borderopacity="1.0"
     inkscape:pageshadow="2"
     inkscape:pageopacity="0.0"
     inkscape:pagecheckerboard="0"
     showgrid="false"
     inkscape:zoom="14.690909"
     inkscape:cx="25.01547"
     inkscape:cy="27.5"
     inkscape:window-width="1920"
     inkscape:window-height="1017"
     inkscape:window-x="-8"
     inkscape:window-y="-8"
     inkscape:window-maximized="1"
     inkscape:current-layer="svg19" />
  <path
     d="M25.7799 1.21021C26.319 0.702481 27.0502 0.417252 27.8125 0.417252C28.5748 0.417252 29.306 0.702481 29.8451 1.21021L38.4701 9.33522C39.0091 9.84311 39.3119 10.5319 39.3119 11.25C39.3119 11.9682 39.0091 12.6569 38.4701 13.1648L29.8451 21.2898C29.3029 21.7831 28.5767 22.0561 27.8228 22.05C27.069 22.0438 26.3479 21.759 25.8149 21.2568C25.2818 20.7547 24.9795 20.0754 24.9729 19.3653C24.9664 18.6551 25.2562 17.971 25.7799 17.4602L29.4973 13.9583H24.9375C14.737 13.9583 6.25 21.9533 6.25 31.5625C6.25 41.1717 14.737 49.1667 24.9375 49.1667C35.138 49.1667 43.625 41.1717 43.625 31.5625C43.625 30.8442 43.9279 30.1553 44.4671 29.6474C45.0062 29.1395 45.7375 28.8542 46.5 28.8542C47.2625 28.8542 47.9938 29.1395 48.5329 29.6474C49.0721 30.1553 49.375 30.8442 49.375 31.5625C49.375 44.1617 38.312 54.5834 24.9375 54.5834C11.563 54.5834 0.5 44.1617 0.5 31.5625C0.5 18.9633 11.563 8.54167 24.9375 8.54167H29.4973L25.7799 5.0398C25.2409 4.53191 24.9381 3.84316 24.9381 3.12501C24.9381 2.40685 25.2409 1.7181 25.7799 1.21021Z"
     fill="#0FA958"
     id="path17" />
  <path
     style="fill:#ffffff;stroke-width:0.0680693"
     d="M 23.517946,54.517248 C 20.44322,54.250754 18.408678,53.820046 16.064356,52.93934 10.867912,50.987159 6.3903297,47.294952 3.6646547,42.714565 -0.59047319,35.563994 -0.4957587,27.074799 3.9181984,19.989621 5.4129685,17.590253 7.5776556,15.270659 9.9901932,13.48311 13.246937,11.070054 17.200392,9.4387903 21.203589,8.8562695 22.664943,8.6436217 23.488604,8.5961896 26.470673,8.552954 L 29.525504,8.5086634 27.589879,6.6881873 C 25.602542,4.819075 25.47326,4.6833226 25.234088,4.2145075 24.28805,2.3601206 26.097811,0.13921767 28.262629,0.4979398 c 0.938773,0.15555957 0.892149,0.11744204 5.805461,4.7463196 2.489306,2.3451988 4.624573,4.4026262 4.745036,4.5720616 0.298997,0.420546 0.438625,0.879674 0.436865,1.436516 -0.0016,0.516271 -0.09888,0.862303 -0.374514,1.332641 -0.205925,0.351384 -8.983085,8.667452 -9.459936,8.962975 -0.907919,0.562673 -1.954474,0.608773 -2.908663,0.128125 -1.39375,-0.702066 -1.901399,-2.408002 -1.094454,-3.677871 0.109022,-0.171564 1.067478,-1.133333 2.129904,-2.137264 1.062425,-1.003932 1.942904,-1.85445 1.956619,-1.890041 0.01565,-0.04061 -1.163146,-0.05299 -3.165223,-0.03323 -3.566897,0.0352 -4.138329,0.08857 -6.083105,0.568155 -5.354749,1.320489 -9.949174,4.955503 -12.2830059,9.718062 -0.810868,1.654705 -1.3034058,3.185499 -1.5686258,4.875242 -0.1728182,1.101043 -0.2090922,3.108705 -0.076705,4.245427 0.416924,3.579857 1.9300045,6.892777 4.3720277,9.572642 3.023124,3.317562 7.002212,5.416499 11.564353,6.100102 0.971306,0.145544 3.365921,0.199053 4.430129,0.099 3.801545,-0.357425 7.336111,-1.773291 10.306876,-4.128699 0.812331,-0.644066 2.455859,-2.316617 3.071239,-3.125473 2.24813,-2.954945 3.420876,-6.141568 3.576178,-9.717311 0.02674,-0.615732 0.08541,-1.111252 0.160757,-1.357799 0.223419,-0.731058 0.835106,-1.365476 1.635304,-1.696074 0.537592,-0.222103 1.570297,-0.223074 2.124424,-0.002 0.748502,0.298626 1.343371,0.895424 1.614292,1.619526 0.237658,0.635198 0.179547,2.433922 -0.141527,4.380758 -1.15278,6.989879 -5.874853,13.245143 -12.585221,16.671465 -2.759778,1.409146 -5.550632,2.254393 -8.678837,2.628502 -0.843718,0.100902 -3.606205,0.183726 -4.254331,0.127551 z"
     id="path218" />
</svg>
