<svg width="68" height="69" viewBox="0 0 68 69" fill="none" xmlns="http://www.w3.org/2000/svg">
<path d="M48.1667 8.625H14.1667C11.05 8.625 8.5 11.2125 8.5 14.375V54.625C8.5 56.15 9.09702 57.6125 10.1597 58.6909C11.2224 59.7692 12.6638 60.375 14.1667 60.375H33.4617C32.3567 58.4775 31.6483 56.35 31.365 54.165C30.3067 53.8011 29.3298 53.2286 28.4902 52.4804C27.6506 51.7323 26.9649 50.8231 26.4726 49.8053C25.9803 48.7875 25.691 47.681 25.6213 46.5494C25.5517 45.4178 25.703 44.2833 26.0667 43.2113C27.2283 39.7612 30.4017 37.375 34 37.375C35.2467 37.375 36.4933 37.6625 37.6267 38.2087C44.115 33.0625 53.3517 33.3212 59.5 38.9275V20.125L48.1667 8.625ZM42.5 25.875H14.1667V14.375H42.5V25.875ZM44.625 60.375L36.8333 51.75L40.12 48.415L44.625 52.9863L54.7967 42.665L58.0833 46.7188L44.625 60.375Z" fill="white"/>
</svg>
